<svg width="824" height="266" viewBox="0 0 824 266" fill="none" xmlns="http://www.w3.org/2000/svg">
<path d="M0 63.84L4.62736 0H192.366L187.408 63.84H132.871L117.337 265.667H40.3241L55.1978 63.84H0Z" fill="white"/>
<path d="M200.298 191.853L206.248 116.708L244.258 147.963L200.298 191.853Z" fill="#CD3026"/>
<path d="M559.91 192.185L565.86 117.04L603.87 148.295L559.91 192.185Z" fill="#CD3026"/>
<path d="M734.427 0.33252H652.788L633.617 266H819.373L824 200.165H720.215L734.427 0.33252Z" fill="white"/>
<path fill-rule="evenodd" clip-rule="evenodd" d="M296.812 0L276.98 266H358.62L366.883 164.255H389.69L422.412 266H511.984L473.313 150.622C490.39 143.529 524.742 119.035 525.536 77.805C526.527 51.87 511.786 0 444.887 0H296.812ZM373.494 57.19L370.189 107.065H411.504C420.318 106.733 438.343 101.413 439.93 82.7925C441.031 74.5908 438.211 57.988 418.115 57.19H373.494Z" fill="white"/>
</svg>
