<svg width="72" height="72" viewBox="0 0 72 72" fill="none" xmlns="http://www.w3.org/2000/svg">
<path d="M72 36.001C72 38.7539 71.5752 41.7185 71.1504 44.2596C70.7257 45.9537 70.3009 47.436 69.6637 48.9183C66.0531 58.2357 58.6195 65.859 49.2743 69.4589C48.4248 69.6706 48 70.0942 47.1504 70.3059C43.5398 71.3647 39.9292 72 36.1062 72C16.1416 72 0 55.9063 0 36.001C0 16.0957 16.1416 0.00203956 36.1062 0.00203956C55.8584 -0.209719 72 16.0957 72 36.001Z" fill="url(#paint0_linear_64_956)"/>
<path d="M71.1505 45.1075C70.7257 46.5898 70.3009 48.0721 69.6638 49.5544C66.0531 58.66 59.0443 65.6481 49.9116 69.248L29.5222 48.9191L26.7611 46.1663L46.7257 28.3785L51.5 24L70.9381 42.1429L71.1505 45.1075Z" fill="url(#paint1_linear_64_956)"/>
<path d="M30.531 49.4698C29.469 49.4698 28.1947 49.0463 27.5575 48.1993L19.2743 39.9407C17.5752 38.2466 17.5752 35.7055 19.2743 34.0115C20.9735 32.3174 23.5221 32.3174 25.2212 34.0115L30.531 39.3054L45.6106 24.2706C47.3097 22.5765 49.8584 22.5765 51.5575 24.2706C53.2566 25.9646 53.2566 28.5057 51.5575 30.1998L33.5044 48.1993C32.6549 49.0463 31.5929 49.4698 30.531 49.4698Z" fill="white"/>
<defs>
<linearGradient id="paint0_linear_64_956" x1="16.5003" y1="6.40562" x2="56.1427" y2="66.859" gradientUnits="userSpaceOnUse">
<stop stop-color="#1DB450"/>
<stop offset="1" stop-color="#188A3F"/>
</linearGradient>
<linearGradient id="paint1_linear_64_956" x1="39.4563" y1="34.8095" x2="54.5885" y2="49.9613" gradientUnits="userSpaceOnUse">
<stop stop-color="#0D6D2E"/>
<stop offset="1" stop-color="#0D6D2E" stop-opacity="0"/>
</linearGradient>
</defs>
</svg>
